<mxfile host="app.diagrams.net" modified="2023-07-25T04:25:04.774Z" agent="Mozilla/5.0 (Windows NT 10.0; Win64; x64) AppleWebKit/537.36 (KHTML, like Gecko) Chrome/115.0.0.0 Safari/537.36 Edg/115.0.1901.183" etag="BkCiakNtpXqoTCpxlJlc" version="21.6.3" type="github">
  <diagram name="Page-1" id="24T3DXJF2uw2_bgW-X_7">
    <mxGraphModel dx="996" dy="549" grid="1" gridSize="10" guides="1" tooltips="1" connect="1" arrows="1" fold="1" page="1" pageScale="1" pageWidth="3300" pageHeight="4681" math="0" shadow="0">
      <root>
        <mxCell id="0" />
        <mxCell id="1" parent="0" />
        <mxCell id="c74hKm6C5fNsjrGRmVH3-32" style="edgeStyle=orthogonalEdgeStyle;rounded=0;orthogonalLoop=1;jettySize=auto;html=1;exitX=1;exitY=0.5;exitDx=0;exitDy=0;entryX=0;entryY=0.5;entryDx=0;entryDy=0;" edge="1" parent="1" source="c74hKm6C5fNsjrGRmVH3-1" target="c74hKm6C5fNsjrGRmVH3-29">
          <mxGeometry relative="1" as="geometry" />
        </mxCell>
        <mxCell id="c74hKm6C5fNsjrGRmVH3-1" value="上升空间消失，看不到阶级跃升的希望" style="rounded=0;whiteSpace=wrap;html=1;" vertex="1" parent="1">
          <mxGeometry x="60" y="90" width="120" height="60" as="geometry" />
        </mxCell>
        <mxCell id="c74hKm6C5fNsjrGRmVH3-9" style="edgeStyle=orthogonalEdgeStyle;rounded=0;orthogonalLoop=1;jettySize=auto;html=1;exitX=1;exitY=0.5;exitDx=0;exitDy=0;entryX=0;entryY=0.5;entryDx=0;entryDy=0;" edge="1" parent="1" source="c74hKm6C5fNsjrGRmVH3-2" target="c74hKm6C5fNsjrGRmVH3-3">
          <mxGeometry relative="1" as="geometry" />
        </mxCell>
        <mxCell id="c74hKm6C5fNsjrGRmVH3-2" value="白领工作的虚无化" style="rounded=0;whiteSpace=wrap;html=1;" vertex="1" parent="1">
          <mxGeometry x="420" y="190" width="120" height="60" as="geometry" />
        </mxCell>
        <mxCell id="c74hKm6C5fNsjrGRmVH3-10" style="edgeStyle=orthogonalEdgeStyle;rounded=0;orthogonalLoop=1;jettySize=auto;html=1;exitX=1;exitY=0.5;exitDx=0;exitDy=0;entryX=0;entryY=0.5;entryDx=0;entryDy=0;" edge="1" parent="1" source="c74hKm6C5fNsjrGRmVH3-3" target="c74hKm6C5fNsjrGRmVH3-4">
          <mxGeometry relative="1" as="geometry" />
        </mxCell>
        <mxCell id="c74hKm6C5fNsjrGRmVH3-3" value="躺平情绪" style="rounded=0;whiteSpace=wrap;html=1;" vertex="1" parent="1">
          <mxGeometry x="560" y="190" width="120" height="60" as="geometry" />
        </mxCell>
        <mxCell id="c74hKm6C5fNsjrGRmVH3-11" style="edgeStyle=orthogonalEdgeStyle;rounded=0;orthogonalLoop=1;jettySize=auto;html=1;exitX=1;exitY=0.5;exitDx=0;exitDy=0;entryX=0;entryY=0.5;entryDx=0;entryDy=0;" edge="1" parent="1" source="c74hKm6C5fNsjrGRmVH3-4" target="c74hKm6C5fNsjrGRmVH3-5">
          <mxGeometry relative="1" as="geometry" />
        </mxCell>
        <mxCell id="c74hKm6C5fNsjrGRmVH3-4" value="减缓甚至停止劳动、以及为了劳动而作的相应努力" style="rounded=0;whiteSpace=wrap;html=1;" vertex="1" parent="1">
          <mxGeometry x="700" y="190" width="120" height="60" as="geometry" />
        </mxCell>
        <mxCell id="c74hKm6C5fNsjrGRmVH3-5" value="消费降级" style="rounded=0;whiteSpace=wrap;html=1;" vertex="1" parent="1">
          <mxGeometry x="840" y="190" width="120" height="60" as="geometry" />
        </mxCell>
        <mxCell id="c74hKm6C5fNsjrGRmVH3-6" value="金钱流入市场变少" style="rounded=0;whiteSpace=wrap;html=1;" vertex="1" parent="1">
          <mxGeometry x="980" y="190" width="120" height="60" as="geometry" />
        </mxCell>
        <mxCell id="c74hKm6C5fNsjrGRmVH3-24" style="edgeStyle=orthogonalEdgeStyle;rounded=0;orthogonalLoop=1;jettySize=auto;html=1;exitX=0;exitY=0.5;exitDx=0;exitDy=0;entryX=1;entryY=0.5;entryDx=0;entryDy=0;" edge="1" parent="1" source="c74hKm6C5fNsjrGRmVH3-7" target="c74hKm6C5fNsjrGRmVH3-23">
          <mxGeometry relative="1" as="geometry" />
        </mxCell>
        <mxCell id="c74hKm6C5fNsjrGRmVH3-7" value="商户和公司营收降低" style="rounded=0;whiteSpace=wrap;html=1;" vertex="1" parent="1">
          <mxGeometry x="540" y="260" width="120" height="60" as="geometry" />
        </mxCell>
        <mxCell id="c74hKm6C5fNsjrGRmVH3-14" style="edgeStyle=orthogonalEdgeStyle;rounded=0;orthogonalLoop=1;jettySize=auto;html=1;exitX=1;exitY=0.5;exitDx=0;exitDy=0;entryX=0;entryY=0.5;entryDx=0;entryDy=0;" edge="1" parent="1" source="c74hKm6C5fNsjrGRmVH3-15" target="c74hKm6C5fNsjrGRmVH3-17">
          <mxGeometry relative="1" as="geometry" />
        </mxCell>
        <mxCell id="c74hKm6C5fNsjrGRmVH3-15" value="上升空间消失，看不到阶级跃升的希望" style="rounded=0;whiteSpace=wrap;html=1;" vertex="1" parent="1">
          <mxGeometry x="120" y="420" width="120" height="60" as="geometry" />
        </mxCell>
        <mxCell id="c74hKm6C5fNsjrGRmVH3-16" style="edgeStyle=orthogonalEdgeStyle;rounded=0;orthogonalLoop=1;jettySize=auto;html=1;exitX=1;exitY=0.5;exitDx=0;exitDy=0;entryX=0;entryY=0.5;entryDx=0;entryDy=0;" edge="1" parent="1" source="c74hKm6C5fNsjrGRmVH3-17" target="c74hKm6C5fNsjrGRmVH3-19">
          <mxGeometry relative="1" as="geometry" />
        </mxCell>
        <mxCell id="c74hKm6C5fNsjrGRmVH3-17" value="工作的虚无化" style="rounded=0;whiteSpace=wrap;html=1;" vertex="1" parent="1">
          <mxGeometry x="260" y="420" width="120" height="60" as="geometry" />
        </mxCell>
        <mxCell id="c74hKm6C5fNsjrGRmVH3-18" style="edgeStyle=orthogonalEdgeStyle;rounded=0;orthogonalLoop=1;jettySize=auto;html=1;exitX=1;exitY=0.5;exitDx=0;exitDy=0;entryX=0;entryY=0.5;entryDx=0;entryDy=0;" edge="1" parent="1" source="c74hKm6C5fNsjrGRmVH3-19" target="c74hKm6C5fNsjrGRmVH3-21">
          <mxGeometry relative="1" as="geometry" />
        </mxCell>
        <mxCell id="c74hKm6C5fNsjrGRmVH3-19" value="躺平情绪" style="rounded=0;whiteSpace=wrap;html=1;" vertex="1" parent="1">
          <mxGeometry x="400" y="420" width="120" height="60" as="geometry" />
        </mxCell>
        <mxCell id="c74hKm6C5fNsjrGRmVH3-20" style="edgeStyle=orthogonalEdgeStyle;rounded=0;orthogonalLoop=1;jettySize=auto;html=1;exitX=1;exitY=0.5;exitDx=0;exitDy=0;entryX=0;entryY=0.5;entryDx=0;entryDy=0;" edge="1" parent="1" source="c74hKm6C5fNsjrGRmVH3-21" target="c74hKm6C5fNsjrGRmVH3-22">
          <mxGeometry relative="1" as="geometry" />
        </mxCell>
        <mxCell id="c74hKm6C5fNsjrGRmVH3-21" value="减缓甚至停止劳动、以及为了劳动而作的相应努力" style="rounded=0;whiteSpace=wrap;html=1;" vertex="1" parent="1">
          <mxGeometry x="540" y="420" width="120" height="60" as="geometry" />
        </mxCell>
        <mxCell id="c74hKm6C5fNsjrGRmVH3-22" value="消费降级" style="rounded=0;whiteSpace=wrap;html=1;" vertex="1" parent="1">
          <mxGeometry x="680" y="420" width="120" height="60" as="geometry" />
        </mxCell>
        <mxCell id="c74hKm6C5fNsjrGRmVH3-26" style="edgeStyle=orthogonalEdgeStyle;rounded=0;orthogonalLoop=1;jettySize=auto;html=1;exitX=0;exitY=0.5;exitDx=0;exitDy=0;entryX=1;entryY=0.5;entryDx=0;entryDy=0;" edge="1" parent="1" source="c74hKm6C5fNsjrGRmVH3-23" target="c74hKm6C5fNsjrGRmVH3-25">
          <mxGeometry relative="1" as="geometry" />
        </mxCell>
        <mxCell id="c74hKm6C5fNsjrGRmVH3-23" value="民营企业降本增效" style="rounded=0;whiteSpace=wrap;html=1;" vertex="1" parent="1">
          <mxGeometry x="400" y="260" width="120" height="60" as="geometry" />
        </mxCell>
        <mxCell id="c74hKm6C5fNsjrGRmVH3-25" value="失业人数增加" style="rounded=0;whiteSpace=wrap;html=1;" vertex="1" parent="1">
          <mxGeometry x="260" y="260" width="120" height="60" as="geometry" />
        </mxCell>
        <mxCell id="c74hKm6C5fNsjrGRmVH3-27" value="" style="rounded=0;whiteSpace=wrap;html=1;" vertex="1" parent="1">
          <mxGeometry x="400" y="90" width="120" height="60" as="geometry" />
        </mxCell>
        <mxCell id="c74hKm6C5fNsjrGRmVH3-33" style="edgeStyle=orthogonalEdgeStyle;rounded=0;orthogonalLoop=1;jettySize=auto;html=1;exitX=1;exitY=0.5;exitDx=0;exitDy=0;entryX=0;entryY=0.5;entryDx=0;entryDy=0;" edge="1" parent="1" source="c74hKm6C5fNsjrGRmVH3-29" target="c74hKm6C5fNsjrGRmVH3-27">
          <mxGeometry relative="1" as="geometry" />
        </mxCell>
        <mxCell id="c74hKm6C5fNsjrGRmVH3-29" value="阶层/工作" style="rhombus;whiteSpace=wrap;html=1;" vertex="1" parent="1">
          <mxGeometry x="230" y="90" width="120" height="60" as="geometry" />
        </mxCell>
        <mxCell id="c74hKm6C5fNsjrGRmVH3-30" value="" style="rhombus;whiteSpace=wrap;html=1;" vertex="1" parent="1">
          <mxGeometry x="230" y="10" width="120" height="60" as="geometry" />
        </mxCell>
        <mxCell id="c74hKm6C5fNsjrGRmVH3-31" value="" style="rounded=0;whiteSpace=wrap;html=1;" vertex="1" parent="1">
          <mxGeometry x="410" y="10" width="120" height="60" as="geometry" />
        </mxCell>
      </root>
    </mxGraphModel>
  </diagram>
</mxfile>
